<?xml version="1.0" encoding="utf-8"?>
<!-- Generator: Adobe Illustrator 26.2.1, SVG Export Plug-In . SVG Version: 6.00 Build 0)  -->
<svg version="1.1" id="Layer_1" xmlns="http://www.w3.org/2000/svg" xmlns:xlink="http://www.w3.org/1999/xlink" x="0px" y="0px"
	 viewBox="0 0 1296.1 768" style="enable-background:new 0 0 1296.1 768;" xml:space="preserve">
<style type="text/css">
	.st0{opacity:0.5;}
	.st1{fill:#9E005D;}
	.st2{fill:none;stroke:#000000;stroke-miterlimit:10;}
	.st3{opacity:0.7;}
	.st4{fill:#FFC77F;}
	.st5{opacity:0.6;}
	.st6{fill:#008F88;}
	.st7{fill:#F15A24;}
	.st8{fill:none;stroke:#231F20;stroke-linecap:round;stroke-miterlimit:10;}
	.st9{fill:none;stroke:#FFFFFF;stroke-width:3;stroke-miterlimit:10;}
	.st10{fill:none;stroke:#000000;stroke-width:3;stroke-miterlimit:10;}
	.st11{fill:none;stroke:#231F20;stroke-width:0.5;stroke-linecap:round;stroke-miterlimit:10;}
	.st12{font-family:'Georgia';}
	.st13{font-size:6.6816px;}
	.st14{fill:none;}
	.st15{font-size:6.7939px;}
	.st16{font-family:'Georgia-Italic';}
	.st17{font-size:84px;}
	.st18{font-size:15px;}
	.st19{font-family:'Georgia-Bold';}
	.st20{font-size:19px;}
	.st21{fill:none;stroke:#000000;stroke-width:0.5;stroke-miterlimit:10;}
	.st22{font-size:10.0827px;}
</style>
<g id="intro">
	<g id="intro4">
		<g class="st0">
			<polyline class="st1" points="1018.2,357.7 1090.7,456.9 974,418.7 			"/>
			<path class="st1" d="M974,418.7c-9.2-6.7-6.7-25.8,5.5-42.6c12.2-16.9,29.7-25,38.8-18.3"/>
		</g>
		<g>
			<polyline class="st2" points="1018.2,357.7 1090.7,456.9 974,418.7 			"/>
			<path class="st2" d="M974,418.7c-9.2-6.7-6.7-25.8,5.5-42.6c12.2-16.9,29.7-25,38.8-18.3"/>
		</g>
		<g class="st3">
			<polyline class="st4" points="1006.7,435 1089.1,460.9 1007.1,487.9 			"/>
			<path class="st4" d="M1007.1,487.9c-8,0-14.5-11.8-14.7-26.3c-0.2-14.5,6.2-26.5,14.3-26.6"/>
		</g>
		<g>
			<polyline class="st2" points="1006.7,435 1089.1,460.9 1007.1,487.9 			"/>
			<path class="st2" d="M1007.1,487.9c-8,0-14.5-11.8-14.7-26.3c-0.2-14.5,6.2-26.5,14.3-26.6"/>
		</g>
		<g class="st5">
			<polyline class="st6" points="1094.4,403.6 1094.4,455.3 1064.3,413.3 			"/>
			<path class="st6" d="M1064.3,413.3c-1.4-4.5,4-10.3,12.4-13.1c8.3-2.6,16.3-1.2,17.7,3.4"/>
		</g>
		<g>
			<polyline class="st2" points="1094.4,403.6 1094.4,455.3 1064.3,413.3 			"/>
			<path class="st2" d="M1064.3,413.3c-1.4-4.5,4-10.3,12.4-13.1c8.3-2.6,16.3-1.2,17.7,3.4"/>
		</g>
		<g class="st5">
			<polyline class="st7" points="1139.2,397.2 1097.2,455.3 1097.6,383.5 			"/>
			<path class="st7" d="M1097.6,383.5c2-6.2,13.1-8.3,24.6-4.5s19.2,11.9,17.1,18.1"/>
		</g>
		<g>
			<polyline class="st2" points="1139.2,397.2 1097.2,455.3 1097.6,383.5 			"/>
			<path class="st2" d="M1097.6,383.5c2-6.2,13.1-8.3,24.6-4.5s19.2,11.9,17.1,18.1"/>
		</g>
	</g>
	<g id="intro3">
		<line class="st8" x1="1091.7" y1="467.2" x2="1129.8" y2="530.3"/>
		<line class="st8" x1="1096.7" y1="464.1" x2="1187.3" y2="613.8"/>
		<line class="st8" x1="1101.8" y1="461.1" x2="1153.7" y2="546.8"/>
		<line class="st8" x1="1106.6" y1="458.1" x2="1121.2" y2="482.1"/>
	</g>
	<g id="intro2">
		<path class="st9" d="M1079.7,311.2c47.3,6,84.9,37.8,100.7,79.4"/>
		<path class="st10" d="M958.9,501.3c-15-23.6-22.2-52.4-18.4-82.4c8.7-68.1,70.9-116.5,139.1-107.7"/>
	</g>
	<g id="intro1">
		<line class="st11" x1="1074.9" y1="477.8" x2="1077" y2="476.3"/>
		<line class="st11" x1="1086.5" y1="496.7" x2="1088.3" y2="495.4"/>
		<line class="st11" x1="1099.1" y1="517.8" x2="1101.1" y2="516.3"/>
		<line class="st11" x1="1111.9" y1="538.6" x2="1113.8" y2="537.4"/>
		<line class="st11" x1="1125.4" y1="561.3" x2="1127.5" y2="559.9"/>
		<line class="st11" x1="1139.1" y1="583.6" x2="1141" y2="582.5"/>
		<line class="st11" x1="1152.6" y1="606.1" x2="1154.7" y2="605"/>
		<text transform="matrix(0.4848 0.8746 -0.8746 0.4848 1078.9816 530.1442)" class="st12 st13">Number of Assignments</text>
		<line class="st11" x1="1076.1" y1="477.2" x2="1167" y2="627.8"/>
		<text transform="matrix(0.4848 0.8746 -0.8746 0.4848 1069.9506 478.84)" class="st12 st13">1</text>
		<text transform="matrix(0.4848 0.8746 -0.8746 0.4848 1081.4764 497.6239)" class="st12 st13">2</text>
		<text transform="matrix(0.4848 0.8746 -0.8746 0.4848 1094.4711 518.3817)" class="st12 st13">3</text>
		<text transform="matrix(0.4848 0.8746 -0.8746 0.4848 1106.3132 539.6186)" class="st12 st13">4</text>
		<text transform="matrix(0.4848 0.8746 -0.8746 0.4848 1120.7581 562.0781)" class="st12 st13">5</text>
		<text transform="matrix(0.4848 0.8746 -0.8746 0.4848 1132.9806 584.8906)" class="st12 st13">6</text>
		<text transform="matrix(0.4848 0.8746 -0.8746 0.4848 1148.0958 607.0588)" class="st12 st13">7</text>
		<text transform="matrix(0.4848 0.8746 -0.8746 0.4848 1160.4292 629.3087)" class="st12 st13">8</text>
		
			<rect x="1085.8" y="306" transform="matrix(0.1564 -0.9877 0.9877 0.1564 609.6229 1339.9226)" class="st14" width="6.9" height="14.2"/>
		<text transform="matrix(0.9877 0.1564 -0.1564 0.9877 1081.9463 313.6719)" class="st12 st15">78%</text>
	</g>
</g>
<rect x="43.6" y="40.3" class="st14" width="784" height="184.6"/>
<text transform="matrix(1 0 0 1 43.5873 108.3207)" class="st16 st17">The Taxonomies of </text>
<text transform="matrix(1 0 0 1 43.5873 211.3207)" class="st16 st17">Visual Cognition </text>
<rect x="62.6" y="290.2" class="st14" width="765.1" height="308.8"/>
<text transform="matrix(1.0424 0 0 1 62.5684 303.0298)" class="st12 st18">Building a data visualizaton requires consideration of audience perception through a variety of lenses. </text>
<text transform="matrix(1.0424 0 0 1 62.5684 323.4297)" class="st12 st18">Visual cognition involves the intellectual functions involved in perceiving and processing information </text>
<text transform="matrix(1.0424 0 0 1 62.5684 343.8296)" class="st12 st18">through visual modality. It  is an important pillar of information design as it provides us with a </text>
<text transform="matrix(1.0424 0 0 1 62.5684 364.23)" class="st12 st18">framework for how an audience considers and identifies patterns within quantitative and qualitative </text>
<text transform="matrix(1.0424 0 0 1 62.5684 384.6299)" class="st12 st18">data. </text>
<text transform="matrix(1.0424 0 0 1 62.5684 425.4297)" class="st12 st18">The study of visual cognition has produced various taxonomies that provide a framework for design </text>
<text transform="matrix(1.0424 0 0 1 62.5684 445.8301)" class="st12 st18">work to appeal to the visual system and facilitate easier and more accurate extraction of information. </text>
<text transform="matrix(1.0424 0 0 1 62.5684 466.2295)" class="st12 st18">While these taxonomies are not strict laws, but rather considerations in building a data visualization,  </text>
<text transform="matrix(1.0424 0 0 1 62.5684 486.6299)" class="st12 st18">the interplay of these various guidelines provide guidelines for mapping information to visual form. </text>
<text transform="matrix(1.0424 0 0 1 62.5684 527.4297)" class="st12 st18">Consider a data visualization  such as the one to the right depicting the time commitment required of </text>
<text transform="matrix(1.0424 0 0 1 62.5684 547.8301)" class="st12 st18">four courses over one semester in comparison to the course’s number of assignments.  In deisgning </text>
<text transform="matrix(1.0424 0 0 1 62.5684 568.2295)" class="st12 st18">each glyph of this graphical form, the taxonomies of visual cognition were considered in aiding the </text>
<text transform="matrix(1.0424 0 0 1 62.5684 588.6299)" class="st12 st18">audience in quickly and accurately ecognizing relationships, correlations, and comparisons. </text>
<text transform="matrix(1 0 0 1 62.5561 652.4745)" class="st19 st20">Explore eight pertinent taxonomies below and how they contributed to  </text>
<text transform="matrix(1 0 0 1 62.5561 677.6745)" class="st19 st20">the form of this data visual. </text>
<line class="st21" x1="1009.6" y1="271.7" x2="1009.6" y2="308.6"/>
<line class="st21" x1="1036.8" y1="271.7" x2="1009.6" y2="271.7"/>
<text transform="matrix(1 0 0 1 1040.531 275.2365)" class="st12 st22">Percentage of the </text>
<text transform="matrix(1 0 0 1 1040.531 287.3342)" class="st12 st22">semester complete</text>
<line class="st21" x1="1151.6" y1="485.5" x2="1151.6" y2="522.3"/>
<line class="st21" x1="1165.2" y1="485.5" x2="1151.6" y2="485.5"/>
<text transform="matrix(1 0 0 1 1168.0955 488.9465)" class="st12 st22">Number of assignments</text>
<line class="st21" x1="1036.8" y1="485.5" x2="1036.8" y2="532.4"/>
<line class="st21" x1="1036.8" y1="532.4" x2="1023.2" y2="532.4"/>
<text transform="matrix(1 0 0 1 904.5554 535.2971)" class="st12 st22">Percentage of overall time</text>
<text transform="matrix(1 0 0 1 904.5554 547.3967)" class="st12 st22">spent on coursework</text>
</svg>
